<svg xmlns="http://www.w3.org/2000/svg" version="1.1" xmlns:xlink="http://www.w3.org/1999/xlink" xmlns:svgjs="http://svgjs.dev/svgjs" viewBox="0 0 800 800"><defs><linearGradient x1="50%" y1="0%" x2="50%" y2="100%" id="ffflurry-grad" gradientTransform="rotate(270)"><stop stop-color="hsl(238, 82%, 13%)" stop-opacity="1" offset="0%"></stop><stop stop-color="hsl(1.4, 100%, 67%)" stop-opacity="1" offset="45%"></stop><stop stop-color="hsl(167, 52%, 78%)" stop-opacity="1" offset="100%"></stop></linearGradient></defs><rect width="100%" height="100%" fill="hsla(238, 82%, 13%, 0)"></rect><g fill="url(#ffflurry-grad)"><rect width="151" height="3" x="220.5" y="690.5" rx="1.5" transform="rotate(45, 296, 692)" opacity="0.86"></rect><rect width="191" height="3" x="667.5" y="402.5" rx="1.5" transform="rotate(45, 763, 404)" opacity="0.25"></rect><rect width="388" height="3" x="237" y="341.5" rx="1.5" transform="rotate(45, 431, 343)" opacity="0.48"></rect><rect width="190" height="3" x="422" y="231.5" rx="1.5" transform="rotate(45, 517, 233)" opacity="0.56"></rect><rect width="115" height="3" x="489.5" y="373.5" rx="1.5" transform="rotate(45, 547, 375)" opacity="0.63"></rect><rect width="47" height="3" x="300.5" y="54.5" rx="1.5" transform="rotate(45, 324, 56)" opacity="0.76"></rect><rect width="149" height="3" x="692.5" y="336.5" rx="1.5" transform="rotate(45, 767, 338)" opacity="0.97"></rect><rect width="336" height="3" x="475" y="684.5" rx="1.5" transform="rotate(45, 643, 686)" opacity="0.45"></rect><rect width="23" height="3" x="773.5" y="145.5" rx="1.5" transform="rotate(45, 785, 147)" opacity="0.52"></rect><rect width="409" height="3" x="320.5" y="103.5" rx="1.5" transform="rotate(45, 525, 105)" opacity="0.86"></rect><rect width="399" height="3" x="-152.5" y="480.5" rx="1.5" transform="rotate(45, 47, 482)" opacity="0.24"></rect><rect width="45" height="3" x="744.5" y="224.5" rx="1.5" transform="rotate(45, 767, 226)" opacity="0.35"></rect><rect width="181" height="3" x="-67.5" y="431.5" rx="1.5" transform="rotate(45, 23, 433)" opacity="0.52"></rect><rect width="38" height="3" x="365" y="781.5" rx="1.5" transform="rotate(45, 384, 783)" opacity="0.23"></rect><rect width="260" height="3" x="578" y="219.5" rx="1.5" transform="rotate(45, 708, 221)" opacity="0.78"></rect><rect width="178" height="3" x="5" y="405.5" rx="1.5" transform="rotate(45, 94, 407)" opacity="0.98"></rect><rect width="270" height="3" x="261" y="259.5" rx="1.5" transform="rotate(45, 396, 261)" opacity="0.10"></rect><rect width="140" height="3" x="382" y="222.5" rx="1.5" transform="rotate(45, 452, 224)" opacity="0.68"></rect><rect width="255" height="3" x="341.5" y="305.5" rx="1.5" transform="rotate(45, 469, 307)" opacity="0.60"></rect><rect width="253" height="3" x="638.5" y="38.5" rx="1.5" transform="rotate(45, 765, 40)" opacity="0.22"></rect><rect width="245" height="3" x="32.5" y="104.5" rx="1.5" transform="rotate(45, 155, 106)" opacity="0.81"></rect><rect width="86" height="3" x="178" y="27.5" rx="1.5" transform="rotate(45, 221, 29)" opacity="0.76"></rect><rect width="160" height="3" x="147" y="324.5" rx="1.5" transform="rotate(45, 227, 326)" opacity="0.81"></rect><rect width="273" height="3" x="227.5" y="545.5" rx="1.5" transform="rotate(45, 364, 547)" opacity="0.80"></rect><rect width="234" height="3" x="341" y="755.5" rx="1.5" transform="rotate(45, 458, 757)" opacity="0.95"></rect><rect width="366" height="3" x="-112" y="199.5" rx="1.5" transform="rotate(45, 71, 201)" opacity="0.89"></rect><rect width="63" height="3" x="550.5" y="636.5" rx="1.5" transform="rotate(45, 582, 638)" opacity="0.41"></rect><rect width="346" height="3" x="-8" y="196.5" rx="1.5" transform="rotate(45, 165, 198)" opacity="0.80"></rect><rect width="192" height="3" x="53" y="35.5" rx="1.5" transform="rotate(45, 149, 37)" opacity="0.80"></rect><rect width="301" height="3" x="440.5" y="250.5" rx="1.5" transform="rotate(45, 591, 252)" opacity="0.68"></rect><rect width="61" height="3" x="72.5" y="596.5" rx="1.5" transform="rotate(45, 103, 598)" opacity="0.18"></rect><rect width="249" height="3" x="613.5" y="605.5" rx="1.5" transform="rotate(45, 738, 607)" opacity="0.99"></rect><rect width="355" height="3" x="335.5" y="412.5" rx="1.5" transform="rotate(45, 513, 414)" opacity="0.84"></rect><rect width="115" height="3" x="32.5" y="18.5" rx="1.5" transform="rotate(45, 90, 20)" opacity="0.41"></rect><rect width="109" height="3" x="229.5" y="323.5" rx="1.5" transform="rotate(45, 284, 325)" opacity="0.36"></rect><rect width="72" height="3" x="437" y="516.5" rx="1.5" transform="rotate(45, 473, 518)" opacity="0.87"></rect><rect width="287" height="3" x="122.5" y="261.5" rx="1.5" transform="rotate(45, 266, 263)" opacity="0.94"></rect><rect width="247" height="3" x="-25.5" y="727.5" rx="1.5" transform="rotate(45, 98, 729)" opacity="0.49"></rect><rect width="33" height="3" x="340.5" y="435.5" rx="1.5" transform="rotate(45, 357, 437)" opacity="0.71"></rect><rect width="123" height="3" x="574.5" y="205.5" rx="1.5" transform="rotate(45, 636, 207)" opacity="0.71"></rect><rect width="201" height="3" x="644.5" y="152.5" rx="1.5" transform="rotate(45, 745, 154)" opacity="0.99"></rect><rect width="233" height="3" x="467.5" y="36.5" rx="1.5" transform="rotate(45, 584, 38)" opacity="0.71"></rect><rect width="203" height="3" x="33.5" y="770.5" rx="1.5" transform="rotate(45, 135, 772)" opacity="0.85"></rect><rect width="165" height="3" x="680.5" y="540.5" rx="1.5" transform="rotate(45, 763, 542)" opacity="0.09"></rect><rect width="73" height="3" x="621.5" y="283.5" rx="1.5" transform="rotate(45, 658, 285)" opacity="0.18"></rect><rect width="178" height="3" x="246" y="709.5" rx="1.5" transform="rotate(45, 335, 711)" opacity="0.50"></rect><rect width="457" height="3" x="445.5" y="35.5" rx="1.5" transform="rotate(45, 674, 37)" opacity="0.78"></rect><rect width="205" height="3" x="512.5" y="110.5" rx="1.5" transform="rotate(45, 615, 112)" opacity="0.67"></rect><rect width="58" height="3" x="396" y="21.5" rx="1.5" transform="rotate(45, 425, 23)" opacity="0.94"></rect><rect width="145" height="3" x="651.5" y="93.5" rx="1.5" transform="rotate(45, 724, 95)" opacity="1.00"></rect><rect width="39" height="3" x="440.5" y="146.5" rx="1.5" transform="rotate(45, 460, 148)" opacity="0.77"></rect><rect width="118" height="3" x="148" y="392.5" rx="1.5" transform="rotate(45, 207, 394)" opacity="0.90"></rect><rect width="60" height="3" x="697" y="663.5" rx="1.5" transform="rotate(45, 727, 665)" opacity="0.76"></rect><rect width="371" height="3" x="501.5" y="547.5" rx="1.5" transform="rotate(45, 687, 549)" opacity="0.64"></rect><rect width="206" height="3" x="298" y="189.5" rx="1.5" transform="rotate(45, 401, 191)" opacity="0.37"></rect><rect width="360" height="3" x="6" y="447.5" rx="1.5" transform="rotate(45, 186, 449)" opacity="0.56"></rect><rect width="354" height="3" x="26" y="83.5" rx="1.5" transform="rotate(45, 203, 85)" opacity="0.71"></rect><rect width="247" height="3" x="-7.5" y="450.5" rx="1.5" transform="rotate(45, 116, 452)" opacity="0.42"></rect><rect width="332" height="3" x="603" y="277.5" rx="1.5" transform="rotate(45, 769, 279)" opacity="0.74"></rect><rect width="392" height="3" x="-78" y="229.5" rx="1.5" transform="rotate(45, 118, 231)" opacity="0.66"></rect><rect width="297" height="3" x="105.5" y="759.5" rx="1.5" transform="rotate(45, 254, 761)" opacity="0.73"></rect><rect width="82" height="3" x="-15" y="29.5" rx="1.5" transform="rotate(45, 26, 31)" opacity="0.12"></rect><rect width="232" height="3" x="263" y="81.5" rx="1.5" transform="rotate(45, 379, 83)" opacity="0.56"></rect><rect width="433" height="3" x="459.5" y="764.5" rx="1.5" transform="rotate(45, 676, 766)" opacity="0.73"></rect><rect width="252" height="3" x="30" y="565.5" rx="1.5" transform="rotate(45, 156, 567)" opacity="0.83"></rect><rect width="178" height="3" x="220" y="364.5" rx="1.5" transform="rotate(45, 309, 366)" opacity="0.52"></rect><rect width="74" height="3" x="569" y="590.5" rx="1.5" transform="rotate(45, 606, 592)" opacity="0.87"></rect><rect width="300" height="3" x="195" y="656.5" rx="1.5" transform="rotate(45, 345, 658)" opacity="0.34"></rect><rect width="413" height="3" x="506.5" y="304.5" rx="1.5" transform="rotate(45, 713, 306)" opacity="0.69"></rect><rect width="492" height="3" x="327" y="473.5" rx="1.5" transform="rotate(45, 573, 475)" opacity="0.89"></rect><rect width="267" height="3" x="442.5" y="709.5" rx="1.5" transform="rotate(45, 576, 711)" opacity="0.74"></rect><rect width="251" height="3" x="91.5" y="684.5" rx="1.5" transform="rotate(45, 217, 686)" opacity="0.33"></rect><rect width="46" height="3" x="303" y="601.5" rx="1.5" transform="rotate(45, 326, 603)" opacity="0.39"></rect><rect width="233" height="3" x="157.5" y="519.5" rx="1.5" transform="rotate(45, 274, 521)" opacity="0.64"></rect><rect width="282" height="3" x="361" y="30.5" rx="1.5" transform="rotate(45, 502, 32)" opacity="0.19"></rect><rect width="191" height="3" x="317.5" y="631.5" rx="1.5" transform="rotate(45, 413, 633)" opacity="0.75"></rect><rect width="368" height="3" x="418" y="329.5" rx="1.5" transform="rotate(45, 602, 331)" opacity="0.12"></rect><rect width="167" height="3" x="685.5" y="746.5" rx="1.5" transform="rotate(45, 769, 748)" opacity="0.68"></rect><rect width="224" height="3" x="-87" y="186.5" rx="1.5" transform="rotate(45, 25, 188)" opacity="0.89"></rect><rect width="129" height="3" x="265.5" y="243.5" rx="1.5" transform="rotate(45, 330, 245)" opacity="0.55"></rect><rect width="427" height="3" x="205.5" y="522.5" rx="1.5" transform="rotate(45, 419, 524)" opacity="0.83"></rect><rect width="236" height="3" x="398" y="669.5" rx="1.5" transform="rotate(45, 516, 671)" opacity="0.71"></rect><rect width="205" height="3" x="-10.5" y="113.5" rx="1.5" transform="rotate(45, 92, 115)" opacity="0.52"></rect><rect width="43" height="3" x="254.5" y="41.5" rx="1.5" transform="rotate(45, 276, 43)" opacity="0.09"></rect><rect width="123" height="3" x="451.5" y="748.5" rx="1.5" transform="rotate(45, 513, 750)" opacity="0.66"></rect><rect width="224" height="3" x="250" y="737.5" rx="1.5" transform="rotate(45, 362, 739)" opacity="0.37"></rect><rect width="315" height="3" x="198.5" y="19.5" rx="1.5" transform="rotate(45, 356, 21)" opacity="0.91"></rect><rect width="336" height="3" x="517" y="371.5" rx="1.5" transform="rotate(45, 685, 373)" opacity="0.56"></rect><rect width="316" height="3" x="34" y="748.5" rx="1.5" transform="rotate(45, 192, 750)" opacity="0.41"></rect><rect width="514" height="3" x="419" y="149.5" rx="1.5" transform="rotate(45, 676, 151)" opacity="0.56"></rect><rect width="336" height="3" x="44" y="234.5" rx="1.5" transform="rotate(45, 212, 236)" opacity="0.83"></rect><rect width="328" height="3" x="397" y="536.5" rx="1.5" transform="rotate(45, 561, 538)" opacity="0.82"></rect><rect width="258" height="3" x="125" y="417.5" rx="1.5" transform="rotate(45, 254, 419)" opacity="0.17"></rect><rect width="355" height="3" x="-5.5" y="279.5" rx="1.5" transform="rotate(45, 172, 281)" opacity="0.50"></rect><rect width="281" height="3" x="212.5" y="201.5" rx="1.5" transform="rotate(45, 353, 203)" opacity="0.24"></rect><rect width="87" height="3" x="46.5" y="662.5" rx="1.5" transform="rotate(45, 90, 664)" opacity="0.38"></rect><rect width="86" height="3" x="-12" y="586.5" rx="1.5" transform="rotate(45, 31, 588)" opacity="0.60"></rect><rect width="361" height="3" x="71.5" y="606.5" rx="1.5" transform="rotate(45, 252, 608)" opacity="0.85"></rect><rect width="264" height="3" x="171" y="102.5" rx="1.5" transform="rotate(45, 303, 104)" opacity="0.43"></rect><rect width="107" height="3" x="24.5" y="61.5" rx="1.5" transform="rotate(45, 78, 63)" opacity="0.30"></rect><rect width="185" height="3" x="217.5" y="409.5" rx="1.5" transform="rotate(45, 310, 411)" opacity="0.33"></rect><rect width="285" height="3" x="341.5" y="462.5" rx="1.5" transform="rotate(45, 484, 464)" opacity="0.56"></rect><rect width="308" height="3" x="224" y="366.5" rx="1.5" transform="rotate(45, 378, 368)" opacity="0.84"></rect><rect width="222" height="3" x="298" y="743.5" rx="1.5" transform="rotate(45, 409, 745)" opacity="0.38"></rect><rect width="124" height="3" x="241" y="468.5" rx="1.5" transform="rotate(45, 303, 470)" opacity="0.99"></rect><rect width="306" height="3" x="290" y="75.5" rx="1.5" transform="rotate(45, 443, 77)" opacity="0.82"></rect><rect width="282" height="3" x="30" y="498.5" rx="1.5" transform="rotate(45, 171, 500)" opacity="0.85"></rect><rect width="226" height="3" x="-76" y="764.5" rx="1.5" transform="rotate(45, 37, 766)" opacity="0.53"></rect><rect width="263" height="3" x="-98.5" y="534.5" rx="1.5" transform="rotate(45, 33, 536)" opacity="0.55"></rect><rect width="102" height="3" x="361" y="691.5" rx="1.5" transform="rotate(45, 412, 693)" opacity="0.67"></rect><rect width="253" height="3" x="389.5" y="524.5" rx="1.5" transform="rotate(45, 516, 526)" opacity="0.17"></rect><rect width="195" height="3" x="262.5" y="309.5" rx="1.5" transform="rotate(45, 360, 311)" opacity="0.21"></rect><rect width="312" height="3" x="-3" y="356.5" rx="1.5" transform="rotate(45, 153, 358)" opacity="0.55"></rect><rect width="259" height="3" x="-4.5" y="151.5" rx="1.5" transform="rotate(45, 125, 153)" opacity="0.90"></rect><rect width="120" height="3" x="104" y="653.5" rx="1.5" transform="rotate(45, 164, 655)" opacity="0.20"></rect><rect width="435" height="3" x="94.5" y="768.5" rx="1.5" transform="rotate(45, 312, 770)" opacity="0.36"></rect><rect width="92" height="3" x="-14" y="279.5" rx="1.5" transform="rotate(45, 32, 281)" opacity="0.83"></rect><rect width="39" height="3" x="572.5" y="769.5" rx="1.5" transform="rotate(45, 592, 771)" opacity="0.78"></rect><rect width="270" height="3" x="-100" y="91.5" rx="1.5" transform="rotate(45, 35, 93)" opacity="0.60"></rect><rect width="45" height="3" x="309.5" y="134.5" rx="1.5" transform="rotate(45, 332, 136)" opacity="0.35"></rect><rect width="82" height="3" x="265" y="188.5" rx="1.5" transform="rotate(45, 306, 190)" opacity="0.78"></rect><rect width="111" height="3" x="51.5" y="541.5" rx="1.5" transform="rotate(45, 107, 543)" opacity="0.20"></rect><rect width="284" height="3" x="413" y="175.5" rx="1.5" transform="rotate(45, 555, 177)" opacity="0.94"></rect><rect width="114" height="3" x="166" y="167.5" rx="1.5" transform="rotate(45, 223, 169)" opacity="0.46"></rect><rect width="134" height="3" x="411" y="632.5" rx="1.5" transform="rotate(45, 478, 634)" opacity="0.68"></rect><rect width="498" height="3" x="-147" y="301.5" rx="1.5" transform="rotate(45, 102, 303)" opacity="0.76"></rect><rect width="101" height="3" x="-23.5" y="691.5" rx="1.5" transform="rotate(45, 27, 693)" opacity="0.90"></rect><rect width="222" height="3" x="521" y="417.5" rx="1.5" transform="rotate(45, 632, 419)" opacity="0.37"></rect><rect width="377" height="3" x="272.5" y="576.5" rx="1.5" transform="rotate(45, 461, 578)" opacity="0.18"></rect><rect width="41" height="3" x="505.5" y="330.5" rx="1.5" transform="rotate(45, 526, 332)" opacity="0.87"></rect><rect width="146" height="3" x="26" y="501.5" rx="1.5" transform="rotate(45, 99, 503)" opacity="0.91"></rect><rect width="202" height="3" x="85" y="145.5" rx="1.5" transform="rotate(45, 186, 147)" opacity="0.24"></rect><rect width="481" height="3" x="-195.5" y="360.5" rx="1.5" transform="rotate(45, 45, 362)" opacity="0.53"></rect><rect width="31" height="3" x="246.5" y="200.5" rx="1.5" transform="rotate(45, 262, 202)" opacity="0.43"></rect><rect width="138" height="3" x="252" y="284.5" rx="1.5" transform="rotate(45, 321, 286)" opacity="0.68"></rect><rect width="40" height="3" x="695" y="718.5" rx="1.5" transform="rotate(45, 715, 720)" opacity="0.80"></rect><rect width="458" height="3" x="304" y="586.5" rx="1.5" transform="rotate(45, 533, 588)" opacity="0.10"></rect><rect width="123" height="3" x="676.5" y="467.5" rx="1.5" transform="rotate(45, 738, 469)" opacity="0.31"></rect><rect width="237" height="3" x="663.5" y="630.5" rx="1.5" transform="rotate(45, 782, 632)" opacity="0.21"></rect><rect width="209" height="3" x="156.5" y="678.5" rx="1.5" transform="rotate(45, 261, 680)" opacity="0.17"></rect><rect width="489" height="3" x="424.5" y="617.5" rx="1.5" transform="rotate(45, 669, 619)" opacity="0.96"></rect><rect width="225" height="3" x="95.5" y="555.5" rx="1.5" transform="rotate(45, 208, 557)" opacity="0.93"></rect><rect width="122" height="3" x="-39" y="129.5" rx="1.5" transform="rotate(45, 22, 131)" opacity="0.92"></rect><rect width="178" height="3" x="560" y="491.5" rx="1.5" transform="rotate(45, 649, 493)" opacity="0.37"></rect><rect width="311" height="3" x="225.5" y="142.5" rx="1.5" transform="rotate(45, 381, 144)" opacity="0.55"></rect><rect width="291" height="3" x="382.5" y="285.5" rx="1.5" transform="rotate(45, 528, 287)" opacity="0.35"></rect><rect width="212" height="3" x="153" y="125.5" rx="1.5" transform="rotate(45, 259, 127)" opacity="0.38"></rect><rect width="304" height="3" x="264" y="439.5" rx="1.5" transform="rotate(45, 416, 441)" opacity="0.72"></rect><rect width="73" height="3" x="578.5" y="545.5" rx="1.5" transform="rotate(45, 615, 547)" opacity="0.94"></rect><rect width="321" height="3" x="-125.5" y="631.5" rx="1.5" transform="rotate(45, 35, 633)" opacity="0.28"></rect></g></svg>