<svg xmlns="http://www.w3.org/2000/svg" version="1.1" xmlns:xlink="http://www.w3.org/1999/xlink" xmlns:svgjs="http://svgjs.dev/svgjs" viewBox="0 0 800 800"><defs><linearGradient x1="50%" y1="0%" x2="50%" y2="100%" id="ssscribble-grad"><stop stop-color="hsl(185, 53%, 55%)" stop-opacity="1" offset="0%"></stop><stop stop-color="hsl(0, 73%, 55%)" stop-opacity="1" offset="100%"></stop></linearGradient></defs><g fill="none" stroke-width="4.5" stroke="url(#ssscribble-grad)" stroke-linecap="round"><path d="M708.27 529C650.2 561.86 736.2 604.45 900.15 654.14 1043.84 701.94 1075.42 752.77 985 800.65 819.94 839.28 661.63 865.57 572.16 871.95 573.26 860.55 646.26 824.77 744.96 766.73 866.87 672.87 813.27 601.9 691.9 698.29 597.48 811.04 513.39 935.69 445.9 1040.44 379.74 1096.67 330.02 1085.86 297.16 1006.65 264.3 886.6 249.85 762.56 254.05 670.48 259.56 632.98 283.87 653.56 321.35 717.91 348.73 810.76 368.69 899.56 360.65 962.75 309.66 994.4 211.08 983.83 71.8 938.19 -69.96 865.08 -181.92 776.97 -217.24 686.83 -161.98 594.89 -33.15 513.43 107.82 445.13 174.15 382.85 123.87 331.8 -32.5 289.32 -209.13 249.3 -301.79 213.5 -243.72 180.64 -73.46 147.78 95.42 119.41 160.29 97.46 89.48 77.96 -61.44 69.23 -197.86 74.56 -253.1 85.91 -195.13 113.25 -59.77 154.54 102.06 194.04 228.27 234.98 290.06 265.03 284.49 267.6 231.86 239.22 164.56 173.36 91.45 75.96 43.36 -42.3 24.98 -159.24 24.55 -247.68 46.19 -286.98 78.97 -262.17 117.69 -182.79 156.14 -65.41 189 54.63 221.86 133.86 247.57 151.35 270.83 107.81 300.02 15.74 338.16 -90.2 395.54 -178.86 470.87 -234.39 573.07 -238.49 696.83 -195.06 814.77 -114.03 914.58 -11.65 963.22 93.56 944.5 194.67 857.25 277.62 729.63 339.67 628.48 383.94 599.99 411.77 679.31 430.1 839.82 439.17 1009.45 448.12 1092.95 462.29 1040.76 474.57 878.53 496.15 708.27 529Q708.27 529 708.27 529" opacity="0.93"></path><path d="M674.27 610.79C615.2 641.3 681.87 675.28 827.08 710.33 975.37 743.1 1042.98 772.51 1003.07 793.62 876.55 806.51 719.26 804.64 590.86 784.37 524.4 753.86 531.03 706.94 588.22 649.52 677.39 599.52 758.41 559.15 810.65 542.46 836.12 562.09 825.47 619.12 790.29 710.97 737.29 822.48 677.95 935.22 623.16 1023.09 565.31 1065.13 519.25 1048.19 488.74 972.65 458.23 861.77 444.7 745.01 445 652.07 442.25 602.74 446.08 603.41 446.2 646.21 428.5 721.91 388.91 805.13 316.4 876.48 217.14 930 92.3 950.56 -36.84 939.08 -134.03 900.93 -176.83 841.37 -142.15 771.02 -45.52 691.45 84.4 613.81 188.54 543.69 206.08 474.61 121.11 415.49 -38.95 366.71 -195.93 319.19 -268.78 280.12 -209.72 249.6 -53.11 219.09 109.89 198.57 192.39 188.54 157.67 179.78 35.42 183.39 -103.61 199.58 -200.03 216.83 -205.32 244.21 -125.86 276.76 9.79 300.08 153 315.85 265.14 314 331.59 285.5 345.89 228.77 324.69 143.48 275.38 40.36 224.27 -70.22 185.9 -168.28 150.96 -233.46 136.65 -251.51 140.87 -213.97 148.96 -132.81 169.6 -22.24 200.11 88.63 230.62 164.19 269.57 187.32 319.02 157.07 372.35 80.99 442.17 -14.37 529.99 -103.52 621.24 -173.01 722.6 -202.68 818.94 -190.55 887.16 -142.1 916.67 -65.55 890.21 24.43 818.06 121.84 711.03 212.57 607.15 290.11 559.46 357.41 592.12 409.54 710.91 449.53 872.31 481.31 1011.93 507.4 1058.43 532.18 987.7 554.67 830.87 580.27 674.27 610.79Q674.27 610.79 674.27 610.79" opacity="0.84"></path><path d="M640.27 622.18C581.03 650.35 629.77 675.29 754.21 695.52 898.94 713.89 992.15 724.15 998.8 723.5 920.97 717.65 788.95 698.15 650.46 665 538.48 629.51 481.05 586.37 477.26 543 519.91 514.24 583.93 501.55 646.6 514.43 706.68 558.3 743.08 631.74 755.26 728.63 753.77 833.77 735.44 932.11 708.4 1003.07 676.98 1032.13 645.2 1010.19 617.03 938.65 588.87 836.9 565.65 728.06 543.95 636.17 517.87 577.98 484.95 561.26 437.64 582.88 376.64 638.18 293.85 708.73 190.36 778.52 84.29 842.74 -20.16 884.89 -99.73 901.6 -132.85 896.9 -108.82 869.5 -26.17 826.52 82.98 770.92 189.75 710.05 246.93 650.31 219.63 587.68 110.39 531.15 -45.2 483.35 -180.5 435.55 -234.96 396.95 -175.72 368.77 -32.73 340.61 122.26 324.21 217.55 318.89 215.92 313.56 127.85 318.85 1.6 332.67 -116.12 343.6 -172.85 358.08 -154.82 370.27 -71.44 369.85 50.04 356.82 174.82 324.61 285.67 270.99 360.41 195.45 398.86 101.91 405.6 2.79 391.96 -93.02 372.51 -168.97 343.9 -211.24 324.39 -210.56 319.44 -163.25 314.45 -82.24 325.58 20.87 353.75 122.63 381.91 194.18 425.79 221.85 483.89 203.67 541.97 143.59 612.72 61.27 690.13 -23.21 788.41 -123.56 842.91 -122.71 751.82 -33.99 663.95 46.28 575.86 129.86 521.81 208.77 533.11 285.33 615.1 351.21 753.48 405.88 900.37 455.34 1004.47 496.31 1016.98 531.07 932.56 563.96 783.26 594.01 640.27 622.18Q640.27 622.18 640.27 622.18" opacity="0.44"></path><path d="M606.27 559.38C547.67 585.2 580.15 602.96 682.72 612.28 870.66 619.7 896.84 580.54 730.53 537.08 604.09 509.45 504.21 481.79 444.04 461.1 424.71 457.59 439.71 472.24 473.28 510.23 522.83 571.5 567.97 653.59 600.14 748.75 629.1 843.3 641.35 925.65 638.45 980.23 632.89 997.68 616.38 971.84 590.56 904.65 564.74 811.99 530.83 711.6 487.7 622.56 441.91 558.49 382.69 527.46 308.98 529.54 232.07 563.22 144.41 616.19 55.07 676.27 -18.29 740.31 -70.35 792.77 -84.86 828.03 -58.53 849.46 10.72 850.98 110.28 836.04 204.64 808.97 271.61 772.08 279.9 730.87 216.31 684.74 94.03 639.81 -50.07 599.62 -162.61 558.52 -200.32 524.19 -141.72 498.37 -12.26 472.55 132.83 456.46 236.02 448.87 262.86 440.36 210.94 438.32 109.4 439.7 -9.43 436.17 -98.31 430.54 -133.37 417.83 -111.58 392.98 -38.99 354.39 61.19 299.12 175.16 230.03 278.36 146.96 359.52 56.04 420.84 -30.92 458.08 -107.05 478.83 -159.66 486.44 -180.67 489.92 -164.35 496.83 -110.26 500.93 -31.19 514.49 63.95 540.31 156.62 566.13 223.83 602.98 254.91 647.58 247.44 689.36 202.83 732.85 135.17 769.99 59.55 793.98 -16.68 799.26 -75.62 777.73 -110.01 736.37 -121.11 670.24 -105.15 590.11 -67.81 523.76 -13.28 481.79 51.44 486.87 118.86 548.82 190.13 660.85 256.63 798.62 315.33 919.09 372.41 985.7 421.14 968.83 461.53 875.6 500.9 735.73 533.56 606.27 559.38Q606.27 559.38 606.27 559.38" opacity="0.91"></path><path d="M572.23 443.37C515.13 466.84 533.24 480.58 613.85 485.1 731.84 489.53 842.82 484.8 913.84 472.13 931.54 460.78 890.04 444.16 805.82 425.84 695.42 414.79 584.71 408.93 491.94 413.65 421.97 434.22 382.47 471.56 367.92 527.32 375.01 597.99 392.88 681.07 411.69 768.66 436.35 849.52 452.59 915.2 456.64 954.42 460.86 961.8 451.72 933.19 428.25 870.66 404.78 787.02 368.08 695.54 319.6 610.96 271.28 543.96 212.34 502.11 147.01 487.36 87.52 500.1 30.99 533.01 -12.26 577.63 -33.89 632.3 -28.08 684.08 11.11 726.75 73.12 763.37 156 785.33 241.96 793 301.74 791.71 322.18 779.07 287.28 758.69 199.05 733.33 74.72 704.72 -52.33 676.04 -141.99 646.1 -164.86 618.6 -107.76 595.12 8.29 571.65 141.88 553.33 248.24 539 297.74 523.41 280.55 509.32 211.07 494 108.54 473.71 9.71 447.69 -59.9 412.81 -91.91 368.96 -77.02 313.31 -25.09 245.92 55.18 172.49 146.92 92.88 235.78 13.76 322.12 -55.28 393.11 -109.24 447.98 -139.2 494.12 -141.65 528.66 -113.16 556.1 -55.21 580.51 20.29 603.4 107.02 626.88 190.66 661.82 269.87 714.05 231.91 712.68 142.1 698.49 71.71 666.16 9.68 616 -36.54 563.32 -67.86 505.27 -77.37 455.75 -67.18 434.58 -41.13 447.5 -1.57 503.94 45.65 597.99 100.14 717.86 155.42 837.61 207.44 924.3 260.78 954.87 308.21 914.45 348.06 817.17 387.8 688.34 419.89 572.27 443.36Q572.23 443.37 572.23 443.37" opacity="0.98"></path><path d="M538.67 312.75C483.53 333.88 488.99 346.83 548.14 352.5 646 358.7 750.66 358.82 835.23 354.8 886.64 353.71 890.89 351.84 852.58 352.55 780.13 361.09 688.84 377.33 595.13 404.5 504.06 443.68 429.37 496.01 373.97 560.76 334.14 632.76 310.41 710.06 296.83 785.59 290.44 875.47 272.29 909.23 245.29 836.55 224.17 761.86 194.66 679.62 159.22 600.95 125.72 533.81 90.37 484.8 58.61 456.77 35.58 450.97 24.53 463.8 31.8 489.97 54.64 528.95 99 571.08 162.38 610.73 228.41 650.7 294.65 681.93 345.11 702.84 361.42 719.03 338.22 724.91 271.32 721.94 171.28 715.37 54.59 702.63 -51.41 685.76 -118.71 667.78 -128.46 647.73 -73.32 626.6 29.7 605.48 150.47 584.28 255.35 562.42 320.63 539.46 333.42 513.76 298.13 483.73 223.9 450.09 135.47 409.42 54.42 360.68 -10.85 307.22 -43.6 245.65 -43.37 178 -14.83 110.66 36.54 43.48 99.64 -17.49 172.95 -65.66 244.22 -97.44 307.51 -107.13 369.75 -94.59 421.25 -57.61 461.72 1.36 500.84 71.87 530.94 149.82 552.07 224.52 578.77 299.36 577.89 290.08 545.72 221.7 519.05 161.65 482.56 103.3 441.81 53.28 411.27 10.54 390.22 -16.75 389.37 -28.24 416.82 -27.73 474.63 -13.63 561.9 10.37 664.95 42.22 772.32 78.88 862.04 116.58 912.81 157.21 912.05 195.52 854.92 229.16 758.19 263.33 641.71 291.63 538.67 312.75Q538.67 312.75 538.67 312.75" opacity="0.73"></path><path d="M504.22 211.43C452.48 230.21 448.18 244.5 488.03 255.08 564.02 266.44 654.67 275.64 740 284.44 810 296.35 848.36 310.8 852.49 330.08 825.74 355.65 772.97 389.02 705.1 431.44 626.1 481.07 548.17 539.38 478.15 604.3 412.75 670.54 359.57 736.79 318.01 797.36 282.29 846.46 254.52 880.18 231.88 893.45 211.16 885.73 192.03 854.9 173.25 802.63 154.47 736.79 136.94 664.04 122.24 592.5 109.47 527.79 103.07 475.3 106.26 438.06 115.28 417.43 137.53 412.34 173.99 419.97 215.07 440.33 266.04 467.1 320.43 495.9 363.69 529.04 394.2 558.69 401.4 582.39 377.71 605.23 322.52 620.4 238.75 627.66 139.65 633.21 38.32 631.7 -44.91 623.78 -92 615.21 -91.51 601.4 -39.77 582.62 50.12 563.84 157.06 540.99 256.77 514.15 331.51 486.65 368.23 454 365.37 415.91 325.46 376.11 262.32 330.01 191.15 278.23 117.71 225.59 59.25 168.98 21.89 111.24 2.88 57.82 6.45 8.79 27.38 -31.11 62.08 -58.3 105.08 -70.05 149.88 -63.18 199.16 -39.7 244.31 2.09 281.97 59.55 320.17 123.85 349.43 192.79 368.21 258.63 390.7 328.22 383.88 342.96 361.65 296.11 349.39 249.3 337.31 199.89 331.54 153.2 339.55 107.83 362.93 71.79 406.55 46.76 468.5 28.96 549.22 22.54 642.22 25.92 732.94 35.58 812.92 52.05 866.61 72.68 883.25 96.42 857.23 121.38 789.76 145.44 697.3 170.27 594.17 192.64 504.26 211.42Q504.22 211.43 504.22 211.43" opacity="0.99"></path><path d="M470.26 172.99C412.19 205.85 491.28 238.54 634.08 277.02 769.34 324.77 815.24 392.93 774.21 485.51 671.98 589.37 552.24 703.96 453.95 801.4 359.33 855.82 295.33 847.85 262.47 768.62 229.61 648.57 231 523.87 268.67 430.25 310.01 381.28 378.47 376.29 437.63 397.25 435.58 441.53 354.84 480.13 195.49 498.57 28.6 516.75 -63.8 510.4 -5.73 477.54 164.52 444.68 333.66 388.42 407.61 313.29 365.87 237.91 257.48 148.02 155.53 60.67 76.22 -3.36 57.83 -33.22 81.06 -8.33 125.7 61.19 174.65 172.57 207.51 292.62 240.38 371.85 254.03 393.14 266.34 362.81 300.06 289.46 369.73 209.72 492.12 148.93 708.76 90.98 718.43 125.17 470.26 172.99Q470.26 172.99 470.26 172.99" opacity="0.76"></path><path d="M436.23 210.34C377.03 238.5 420.5 278.51 526.55 330.99 655.86 388.15 742.67 463.69 767.49 553.59 743.23 642.55 681.13 730.44 613.48 796 536.48 825.28 477.87 806.19 449.71 734.66 421.54 632.91 426.48 523.67 454.67 432.28 473.51 368.06 491.65 335.73 478.99 327.58 417.25 341.19 300.57 358.95 150.61 367.77 23.92 380.12 -30.96 374.7 28.23 346.54 171.21 318.37 325.85 270.12 423.96 208.96 441.75 151.32 391.64 89.61 317.27 39.08 229.37 10.31 171.43 12.76 150.57 56.33 141.55 127.07 155.87 224.88 184.03 326.63 212.19 398.18 251.53 428.69 309.36 420.07 379.03 375.15 480.92 317.14 605.74 265.09 717.04 212.11 797.03 180.52 799.91 172.17 722.46 168.51 579.26 182.16 436.27 210.33Q436.23 210.34 436.23 210.34" opacity="0.07"></path><path d="M402.23 311.01C345.13 334.48 359.47 374.25 425.97 427.21 527.21 481.03 619.32 547.8 678.58 620.11 713.53 685.42 712.68 743.42 691.08 779.83 658.57 789.07 625 763.19 601.53 700.66 578.06 617.02 566.91 525.3 558.74 442.36 539.67 373.33 503.88 324.51 438.17 294.61 348.14 280.49 231.14 274.72 112.69 268.78 28.98 267.17 5.13 256.89 62.23 233.42 178.29 209.95 311.22 175.51 416.14 136.44 478.67 86.27 378.42 65.29 324.01 129.07 294.97 194.79 291.11 276.99 314.58 360.63 338.03 423.17 386.61 458.58 456.33 466.55 526.52 447.35 612.93 414.25 696.71 379.69 753.39 338.15 771.2 308 729.44 294.86 641.74 282.58 518.34 287.53 402.27 311Q402.23 311.01 402.23 311.01" opacity="0.19"></path><path d="M368.43 441.34C316.56 460.12 309.7 492.55 340.15 534.48 402.36 575.25 472.08 622.63 531.11 669.64 603.24 723.98 632.5 733.06 609.53 666.61 590.75 600.76 563.35 527.86 525.14 458.3 481.39 393.98 418.95 340.51 338.77 299.8 255.14 267.9 165.5 244.44 89.52 225.95 45.31 210.64 44.56 194.65 96.43 175.87 186.4 157.09 292.68 137.3 388.85 120.07 465.44 106.03 511.41 100.18 530.35 107.47 526.92 123.57 513.46 157.12 503.24 207.68 488.17 263.47 487 328.76 505.78 394.61 524.55 446.87 561.51 482.85 609.12 501.41 673.26 497.08 715.33 445.87 639.48 428.6 557.07 419.22 458.4 422.57 368.43 441.34Q368.43 441.34 368.43 441.34" opacity="0.56"></path><path d="M334.23 557.95C275.03 586.12 308.08 640.45 371.21 689.89 456.54 717.46 496.42 704.19 468.25 632.66 440.08 530.9 349.2 420.9 226.96 338.34 126.91 269.22 71.03 221.4 130.23 193.24 273.23 165.07 427 161.89 521.03 194.09 572.6 239.73 593.7 326.9 621.87 428.66 650.03 500.19 679.94 536.29 665.28 545.64 608.17 533.12 477.23 529.78 334.23 557.95Q334.23 557.95 334.23 557.95" opacity="0.11"></path><path d="M300.27 621.76C246.65 659.32 315.69 684.16 278.14 598.65 240.58 460.22 110.65 317.15 164.27 279.59 361.75 242.04 541.96 324.22 579.52 462.65 617.07 548.16 497.75 584.21 300.27 621.76Q300.27 621.76 300.27 621.76" opacity="0.96"></path></g></svg>